<svg width="18" height="18" xmlns="http://www.w3.org/2000/svg" xmlns:svg="http://www.w3.org/2000/svg">
 <g class="layer">
  <title>Layer 1</title>
  <path d="m15.12,5.59a0.05,0.05 0 0 0 -0.02,-0.02a14.51,14.51 0 0 0 -3.57,-1.11a0.05,0.05 0 0 0 -0.05,0.04a10.09,10.09 0 0 0 -0.44,0.92a13.39,13.39 0 0 0 -4.02,0a9.26,9.26 0 0 0 -0.44,-0.92a0.05,0.05 0 0 0 -0.05,-0.04a14.46,14.46 0 0 0 -3.57,1.11a0.05,0.05 0 0 0 -0.02,0.02c-2.28,3.4 -2.91,6.73 -2.59,10a0.05,0.05 0 0 0 0.02,0.04a14.58,14.58 0 0 0 4.39,2.22a0.05,0.05 0 0 0 0.05,-0.02a10.41,10.41 0 0 0 0.9,-1.46a0.05,0.05 0 0 0 -0.04,-0.09a9.61,9.61 0 0 1 -1.37,-0.65a0.05,0.05 0 0 1 -0.01,-0.1c0.09,-0.07 0.19,-0.15 0.28,-0.22a0.05,0.05 0 0 1 0.05,-0.01c2.87,1.32 5.99,1.32 8.83,0a0.05,0.05 0 0 1 0.05,0.01c0.09,0.07 0.18,0.15 0.28,0.22a0.05,0.05 0 0 1 -0.01,0.1a9.01,9.01 0 0 1 -1.37,0.65a0.05,0.05 0 0 0 -0.04,0.09a11.69,11.69 0 0 0 0.9,1.46a0.05,0.05 0 0 0 0.05,0.02a14.53,14.53 0 0 0 4.4,-2.22a0.05,0.05 0 0 0 0.02,-0.04c0.37,-3.79 -0.61,-7.08 -2.59,-10l0,0l-0.01,0l0.02,0l-0.03,0zm-9.04,8.01c-0.87,0 -1.58,-0.8 -1.58,-1.77s0.7,-1.77 1.58,-1.77c0.89,0 1.59,0.8 1.58,1.77c0,0.98 -0.7,1.77 -1.58,1.77zm5.85,0c-0.87,0 -1.58,-0.8 -1.58,-1.77s0.7,-1.77 1.58,-1.77c0.89,0 1.59,0.8 1.58,1.77c0,0.98 -0.69,1.77 -1.58,1.77z" fill="#999" id="svg_1"/>
 </g>
</svg>